<?xml version="1.0" encoding="UTF-8" standalone="no"?>
<!DOCTYPE svg PUBLIC "-//W3C//DTD SVG 1.1//EN" "http://www.w3.org/Graphics/SVG/1.1/DTD/svg11.dtd">
<svg width="100%" height="100%" viewBox="0 0 48 48" version="1.1" xmlns="http://www.w3.org/2000/svg" xmlns:xlink="http://www.w3.org/1999/xlink" xml:space="preserve" xmlns:serif="http://www.serif.com/" style="fill-rule:evenodd;clip-rule:evenodd;stroke-linejoin:round;stroke-miterlimit:2;">
    <g id="music-note-2--music-audio-note-entertainment">
        <path id="Union" d="M44.573,4.87C44.573,2.942 43.01,1.366 41.05,1.498C36.125,1.829 25.886,3.021 16.086,7.326C14.168,8.169 13.017,10.097 13.017,12.16L13.017,27.954C12.317,27.792 11.602,27.71 10.884,27.71C5.696,27.71 1.428,31.979 1.428,37.166C1.428,42.354 5.696,46.622 10.884,46.622C15.814,46.622 19.959,42.766 20.315,37.849C20.331,37.799 20.339,37.747 20.339,37.695L20.339,18.652C25.823,16.732 31.49,15.384 37.251,14.63L37.251,22.685C36.554,22.524 35.841,22.443 35.125,22.443C29.938,22.443 25.669,26.712 25.669,31.899C25.669,37.083 29.933,41.35 35.117,41.355C40.048,41.355 44.194,37.498 44.549,32.58C44.565,32.53 44.573,32.478 44.573,32.426L44.573,4.87Z" style="fill:#38cfac;fill-rule:nonzero;"/>
    </g>
</svg>
